PathFileType	4	(X/Y/Z)	/Users/niels/Desktop/University/Third Semester/Perception and Action/Exam/Gymnastics Motion Tracking/Code for Gym Tracking/Analyzed Data/Webcam_Backflip/id2_5_baseline_Sports2D/id2_5_baseline_Sports2D_px_person00.trc
DataRate	CameraRate	NumFrames	NumMarkers	Units	OrigDataRate	OrigDataStartFrame	OrigNumFrames
29.875	29.875	7	22	m	29.875	120	240
Frame#	Time	Hip			RHip			RKnee			RAnkle			RBigToe			RSmallToe			RHeel			LHip			LKnee			LAnkle			LBigToe			LSmallToe			LHeel			Neck			Head			Nose			RShoulder			RElbow			RWrist			LShoulder			LElbow			LWrist		
		X1	Y1	Z1	X2	Y2	Z2	X3	Y3	Z3	X4	Y4	Z4	X5	Y5	Z5	X6	Y6	Z6	X7	Y7	Z7	X8	Y8	Z8	X9	Y9	Z9	X10	Y10	Z10	X11	Y11	Z11	X12	Y12	Z12	X13	Y13	Z13	X14	Y14	Z14	X15	Y15	Z15	X16	Y16	Z16	X17	Y17	Z17	X18	Y18	Z18	X19	Y19	Z19	X20	Y20	Z20	X21	Y21	Z21	X22	Y22	Z22
120	4.01673640167364	0.8364046409100413	-0.4996774776472827	0.0	0.8344560696860587	-0.49980793467751183	0.0	0.8893405675468945	-0.5919869273413955	0.0	0.8138400913301963	-0.6888256702438901	0.0	0.8475757247079508	-0.7362437837203047	0.0	0.836504889572436	-0.7327162744808848	0.0	0.7956816385129828	-0.6969074693454629	0.0	0.8460546124840552	-0.5008858888526047	0.0	0.8828888043132064	-0.6057850353739324	0.0	0.9065606008246603	-0.7230666760382869	0.0	0.9474606126237074	-0.740436180125522	0.0	0.940792515311185	-0.7384202811401337	0.0	0.9020086920557852	-0.7386213708374998	0.0	0.8754985504451065	-0.36542424044434013	0.0	0.9123638104978457	-0.3006413988771819	0.0	0.912637378344945	-0.34189222733775515	0.0	0.8650703219646736	-0.35963518480984213	0.0	0.8890299159094472	-0.29520213091844616	0.0	0.9221542769909934	-0.234772965937094	0.0	0.8858689159665494	-0.37754137230447005	0.0	0.9244629079598158	-0.3248460107793925	0.0	0.9615611202919729	-0.28359655060038136	0.0
121	4.05020920502092	0.8480566234722208	-0.5080871315417048	0.0	0.8462966045864639	-0.5086216360477636	0.0	0.8940920060973374	-0.6030292779033327	0.0	0.831012416322638	-0.7067923584518145	0.0	0.8663037275660781	-0.7506427102888942	0.0	0.8551610134904739	-0.7484559634197584	0.0	0.8143570414125887	-0.7172795295024212	0.0	0.8563744882085331	-0.5094915733926644	0.0	0.8891489406146208	-0.6155541109717376	0.0	0.9135841203838407	-0.731487549324742	0.0	0.9507487694937224	-0.7501416035951078	0.0	0.9447690567728394	-0.7475568936259718	0.0	0.9102992482802506	-0.7469306144633379	0.0	0.8816732794445411	-0.3730168576970838	0.0	0.916718870008984	-0.3076178024950892	0.0	0.9170254898541791	-0.3480740989710415	0.0	0.8717949828838492	-0.36769810170862405	0.0	0.8921300677736184	-0.3021891717851722	0.0	0.9223664306521424	-0.24087483901978068	0.0	0.8911230570789103	-0.3832342585611769	0.0	0.9272127806666809	-0.3269255755913261	0.0	0.9603245605084139	-0.282028480671977	0.0
122	4.083682008368201	0.8594027451538306	-0.519222756354163	0.0	0.8576915993449126	-0.5200707748820089	0.0	0.8975550743226495	-0.6168543675398269	0.0	0.8495174665375679	-0.7264464709783026	0.0	0.8863349007175003	-0.7655062775923209	0.0	0.8749511127673644	-0.7649616856597081	0.0	0.8347575668891364	-0.7395499460094282	0.0	0.8666690672814715	-0.5206862400450138	0.0	0.8959266647099351	-0.6270702827246553	0.0	0.916770574174367	-0.7410588310755413	0.0	0.9500775860655148	-0.7616628195788401	0.0	0.9452444761391803	-0.7581753995403767	0.0	0.9140503587149119	-0.7561825797135071	0.0	0.8877201998018998	-0.3831830089542899	0.0	0.9208940890119826	-0.316774383793882	0.0	0.9211979328255089	-0.35640608981730426	0.0	0.8784257473392695	-0.378808060584421	0.0	0.8950802964655322	-0.3112673072025792	0.0	0.9219688242079513	-0.24941154209650543	0.0	0.8959196386837852	-0.3912554082186274	0.0	0.9287200386031099	-0.3311873072981235	0.0	0.9575631243134229	-0.2818030658536391	0.0
123	4.117154811715481	0.8699942051087134	-0.5321727365413863	0.0	0.8683673840290915	-0.5331833663155793	0.0	0.9000192694407729	-0.6324349855485333	0.0	0.8678580802133345	-0.7462178908713607	0.0	0.9056775625646791	-0.7798610434171498	0.0	0.8939642542382898	-0.7810414506763882	0.0	0.8552368132815671	-0.7617061012226736	0.0	0.8764115200969788	-0.533569749108941	0.0	0.9021532067252241	-0.6399167758965999	0.0	0.9175305062236958	-0.7518124057616616	0.0	0.948385518072239	-0.7742879635789383	0.0	0.9447754485781018	-0.7698643464974535	0.0	0.9146447796481868	-0.7666471520045456	0.0	0.893736174286036	-0.39509661471924257	0.0	0.9252722198156454	-0.32734876854525	0.0	0.9254584313088474	-0.36629179871672085	0.0	0.8849994922971122	-0.39200947042533546	0.0	0.8981378467877296	-0.3215295557628538	0.0	0.9215471747248909	-0.25932723719983075	0.0	0.9003983105543717	-0.40115033987136967	0.0	0.9291809060654342	-0.33727186413940635	0.0	0.9537020303704875	-0.2829221510260912	0.0
124	4.150627615062761	0.8794986316280855	-0.5458990221443992	0.0	0.8780493587177371	-0.5469459870082046	0.0	0.9020226948149267	-0.6485356634474868	0.0	0.884152578707854	-0.7647179035300645	0.0	0.9219835304108218	-0.793125574647447	0.0	0.9099760240120575	-0.7958347224539194	0.0	0.8736749062556102	-0.7819365357890055	0.0	0.8851605863019284	-0.5471970519648516	0.0	0.9069915149423451	-0.653425178621729	0.0	0.9169780957617781	-0.7635199753724491	0.0	0.9472756325829246	-0.7871316754607981	0.0	0.9446232315188811	-0.7820378347945595	0.0	0.9132327172008423	-0.7781831485750608	0.0	0.8996427322129263	-0.4078136934759869	0.0	0.929994629332007	-0.3386034911119668	0.0	0.9299120880311688	-0.37706069472164083	0.0	0.8913094828919588	-0.4060517084899686	0.0	0.901404740591246	-0.3321415897761339	0.0	0.9215493420218712	-0.26952768125590193	0.0	0.9047205791416917	-0.4123095200553857	0.0	0.9291381022732756	-0.34462248171307336	0.0	0.9494635634030576	-0.2854891519526978	0.0
125	4.184100418410042	0.8877105282977831	-0.5592560941282319	0.0	0.8864927390023999	-0.5602918093212729	0.0	0.9040271399105234	-0.6637765212843175	0.0	0.8968090182990159	-0.7808512761480937	0.0	0.9334971506115491	-0.8048537656284468	0.0	0.9213806165602734	-0.808670846051355	0.0	0.888233888100601	-0.7989745477766661	0.0	0.8926568297549784	-0.5605148389931944	0.0	0.9102380803075214	-0.6665759174558445	0.0	0.9158622855913807	-0.7754517133895863	0.0	0.9469154910340687	-0.7991824293644098	0.0	0.9447662369707338	-0.7938311548702648	0.0	0.9108603250602244	-0.790066155279734	0.0	0.9052400689354122	-0.4202373364817781	0.0	0.9349668225909027	-0.3497407130753964	0.0	0.9344523660867516	-0.38786867310165896	0.0	0.8970340605915201	-0.4194768242268937	0.0	0.9048737941988663	-0.34231241576666355	0.0	0.9222350460623587	-0.279071485983769	0.0	0.9089487106255123	-0.4238335159271619	0.0	0.9292755915753073	-0.35249917941833653	0.0	0.9457327149728191	-0.28949177124380043	0.0
126	4.217573221757322	0.8945152161904382	-0.571126671419695	0.0	0.8934611958928574	-0.572134477470349	0.0	0.9061160539047741	-0.6768476931431612	0.0	0.9050473600768837	-0.793846322080462	0.0	0.9396772755752989	-0.8145448291842978	0.0	0.9277560168850052	-0.8189618048478254	0.0	0.8979582963811479	-0.812178685023726	0.0	0.8988852589067283	-0.57239653315764	0.0	0.9122658573522093	-0.6782231871295983	0.0	0.9146102862466815	-0.7864486492267964	0.0	0.9468028996854867	-0.8094104003631349	0.0	0.9446656441677574	-0.8041793690891743	0.0	0.90843768723179	-0.8010994122739652	0.0	0.9102884908134878	-0.43123711079846894	0.0	0.9398702178843695	-0.359837122927106	0.0	0.9388441718102934	-0.39770146431383446	0.0	0.9019743095730515	-0.43091154966436385	0.0	0.9084971090030811	-0.35131737402951085	0.0	0.9236690839194881	-0.2873757481475182	0.0	0.9130118027321081	-0.4345591382177506	0.0	0.9301655121398141	-0.3600957295953201	0.0	0.9433558613548426	-0.29471742903208503	0.0
